inDegrees=no
num_controls=7
num_derivatives=13
num_iterations=18
num_multipliers=7
num_parameters=0
num_slacks=7
num_states=26
objective=0.463967
objective_accelerations=0.000000
objective_balance=0.012078
objective_effort=0.015453
objective_height=0.435777
objective_ligament=0.000659
solver_duration=254.724086
status=Solve_Succeeded
success=true
DataType=double
version=3
OpenSimVersion=4.5
endheader
time	/jointset/ground_pelvis/pelvis_tilt/value	/jointset/ground_pelvis/pelvis_tx/value	/jointset/ground_pelvis/pelvis_ty/value	/jointset/hip_l/hip_flexion_l/value	/jointset/hip_l/hip_adduction_l/value	/jointset/hip_l/hip_rotation_l/value	/jointset/back/lumbar_extension/value	/jointset/patellofemoral_l/patellar_flexion_l/value	/jointset/knee_l/knee_flexion_l/value	/jointset/knee_l/knee_adduction_l/value	/jointset/knee_l/knee_rotation_l/value	/jointset/ankle_l/ankle_angle_l/value	/jointset/subtalar_l/subtalar_angle_l/value	/jointset/ground_pelvis/pelvis_tilt/speed	/jointset/ground_pelvis/pelvis_tx/speed	/jointset/ground_pelvis/pelvis_ty/speed	/jointset/hip_l/hip_flexion_l/speed	/jointset/hip_l/hip_adduction_l/speed	/jointset/hip_l/hip_rotation_l/speed	/jointset/back/lumbar_extension/speed	/jointset/patellofemoral_l/patellar_flexion_l/speed	/jointset/knee_l/knee_flexion_l/speed	/jointset/knee_l/knee_adduction_l/speed	/jointset/knee_l/knee_rotation_l/speed	/jointset/ankle_l/ankle_angle_l/speed	/jointset/subtalar_l/subtalar_angle_l/speed	/forceset/tau_hip_flexion_l	/forceset/tau_hip_adduction_l	/forceset/tau_hip_rotation_l	/forceset/tau_knee_flexion_l	/forceset/tau_ankle_angle_l	/forceset/tau_subtalar_angle_l	/forceset/tau_lumbar_extension	lambda_cid13_p0	lambda_cid13_p1	lambda_cid13_p2	lambda_cid13_p3	lambda_cid13_p4	lambda_cid13_p5	lambda_cid14_p0	/jointset/ground_pelvis/pelvis_tilt/accel	/jointset/ground_pelvis/pelvis_tx/accel	/jointset/ground_pelvis/pelvis_ty/accel	/jointset/hip_l/hip_flexion_l/accel	/jointset/hip_l/hip_adduction_l/accel	/jointset/hip_l/hip_rotation_l/accel	/jointset/back/lumbar_extension/accel	/jointset/patellofemoral_l/patellar_flexion_l/accel	/jointset/knee_l/knee_flexion_l/accel	/jointset/knee_l/knee_adduction_l/accel	/jointset/knee_l/knee_rotation_l/accel	/jointset/ankle_l/ankle_angle_l/accel	/jointset/subtalar_l/subtalar_angle_l/accel	gamma_cid13_p0	gamma_cid13_p1	gamma_cid13_p2	gamma_cid13_p3	gamma_cid13_p4	gamma_cid13_p5	gamma_cid14_p0
1.5	0.02369592787990828	0.02571095490648413	0.9145525109281831	0.2486232048395971	-0.1421665510671028	-0.08330678000035678	-0.2959207484402869	0.04862064055245827	0.04862064055245135	0.07366317872807628	-0.02651125382291183	-0.03593758002002392	0.1061246129799274	-0.3868602685739433	0.006982987012393034	-0.03273711519572296	0.4238520674860448	0.002090078886146695	-0.06808476922262108	0.5690909646606019	0.004261522579191887	0.004261522579192637	-3.173734979953477e-05	0.07172883269480651	-0.02615139705523287	-0.005115329332651269	0.018518526516983	0.06260898818799647	0.01444241119181921	-0.1813271880368697	0.2144157692312643	-0.04818573276228446	0.05830692772100399	23.84639097309213	22.49380555519424	-10.54737427084444	1.8770165540679	-629.421021416582	-13.94978632201328	-34.74496802361417	-0.3738573782532022	0.0004164968687041002	-0.05066866293590912	0.4732621695759615	-0.04870056412218055	-0.04853176406334848	0.73474847581458	0.1353744165439194	0.1353744165439194	-0.08517734727454331	0.07977033460689942	0.03931317173092157	-0.03615172475725554	3.810638878915069e-09	6.904865320638781e-09	-4.612521155909688e-10	-4.242629120138565e-09	-9.816275893723554e-09	2.97250017848978e-10	1.264130476120592e-09
1.51	0.01980924410489765	0.02578074921797161	0.9142226545062229	0.2528846795782996	-0.1421481230427996	-0.08399017762384597	-0.2901941539647605	0.04866984448578757	0.0486698444857797	0.0736585094060961	-0.02578986915770231	-0.03619721593789364	0.1060715887502363	-0.3904418477134657	0.006969703745922891	-0.03323289620167411	0.4284165399520639	0.001594920334902195	-0.06859364312587947	0.5761531061731981	0.005588029518312052	0.005588029518312787	-0.0009020666448724089	0.07254856196250706	-0.02577555851969725	-0.005490056002580854	0.01859538075171882	0.06250164709045061	0.01437062190920712	-0.1815881141424422	0.2149383106616184	-0.04824729972561295	0.05742937767729599	24.01837517707731	22.48096228018694	-10.53451125876812	1.851858210090628	-629.2631397806832	-13.96488144885761	-34.75391092679273	-0.3451124396594273	-0.003127302009070313	-0.04884380595092561	0.4440885955176136	-0.05001549573054514	-0.05189797643023872	0.6807233496540174	0.132603385203572	0.1326033852036408	-0.08795047260355406	0.08314387999241418	0.03675444803763493	-0.03821516824577838	3.840409418594418e-09	6.93539658534308e-09	-5.228630190766605e-10	-4.192106484941989e-09	-9.725701239506887e-09	3.536769291627714e-10	1.293570777222144e-09
1.52	0.01588778368693021	0.02585022538407495	0.9138878780768968	0.2571910088037514	-0.1421346650030476	-0.08467863054095778	-0.284399182801971	0.04873257639902577	0.04873257639901785	0.07364513884078758	-0.02506027326839845	-0.03645308641969209	0.1060148008478196	-0.3938155971673278	0.006919357935565978	-0.03372111666894086	0.4328229648341975	0.001096081979468885	-0.06909582794805701	0.5827663021126159	0.006967118561726676	0.006967118561727399	-0.001771986019147944	0.07337107751583136	-0.02539830984125256	-0.00586806387790992	0.01867223498647273	0.06239430599290088	0.01429883262651019	-0.181849040248016	0.2154608520919711	-0.04830886668894496	0.05655182763360329	24.19111319442664	22.46750029005471	-10.52099365083361	1.821702257815603	-629.0979359920577	-13.98145671676619	-34.76340248680625	-0.3322914411211572	-0.006996011908473641	-0.04915655519900318	0.4416526527985863	-0.04943652495999057	-0.04719394784710091	0.6449593611794292	0.1458908374026494	0.1458908374026494	-0.08509536311516985	0.08032759173155615	0.03959520031287726	-0.03680796583715896	3.863536508443637e-09	6.951179921998729e-09	-5.851383902238475e-10	-4.126857408787454e-09	-9.608242609650819e-09	4.127049380333627e-10	1.322287579423381e-09
1.53	0.01193363721223925	0.0259190165705579	0.9135482599715585	0.2615405905739582	-0.1421262152037161	-0.08537207718706016	-0.2785403411661362	0.04880935467300616	0.04880935467299678	0.0736230676949569	-0.02432243399517367	-0.03670517573654315	0.105954215581395	-0.3969762546726751	0.006833062686214146	-0.03420081999011528	0.4370629728464894	0.0005931978953386638	-0.0695926190445349	0.5889235699997032	0.00839618726438892	0.008396187264389617	-0.002642368852672928	0.07419729173100384	-0.02501919980684461	-0.006249563009938448	0.01876661966914752	0.06227787262791503	0.01422796899802357	-0.1821561277305982	0.2160333291007053	-0.04837657479386746	0.05564633133180519	24.37847008801015	22.45591233503127	-10.509792689201	1.786818056156543	-628.9466714907384	-13.9975911524898	-34.77345885901521	-0.3023364699302433	-0.01031958272942246	-0.04712643600654215	0.4106123128767513	-0.0508174756465905	-0.050788961361782	0.5893422456883471	0.142562267821881	0.1425622678219402	-0.08802743147168354	0.08384595808208155	0.0371230187755279	-0.03890803333593067	3.879604932848344e-09	6.951293585102692e-09	-6.481197582613732e-10	-4.045961489115085e-09	-9.462219755677887e-09	4.744966130580517e-10	1.350235664043034e-09
